# xmcd
#
# Track frame offsets:
#	150
#	17686
#	45522
#	64560
#	84635
#	97709
#	115640
#	130498
#	144242
#	159289
#
# Disc length: 2411 seconds
#
# Revision: 0
# Processed by: cddbd v1.5.2PL0 Copyright (c) Steve Scherf et al.
# Submitted via: dBpowerAMP V4.0
#
DISCID=6e09690a
DTITLE=Dyzack - Somewhere There's A Monkey Laughing
DYEAR=1900
DGENRE=General Blues
TTITLE0=Sweet Hisses
TTITLE1=Happy Daisy
TTITLE2=A Thousand Days
TTITLE3=Two Sevens
TTITLE4=Nevertheless
TTITLE5=Schmalzy Heaven
TTITLE6=Oh Susanne
TTITLE7=Traveller
TTITLE8=Lazy Sway
TTITLE9=Take This Road
EXTD=
EXTT0=
EXTT1=
EXTT2=
EXTT3=
EXTT4=
EXTT5=
EXTT6=
EXTT7=
EXTT8=
EXTT9=
PLAYORDER=
